<?xml version="1.0" encoding="utf-8"?>
<!-- Generator: Adobe Illustrator 21.1.0, SVG Export Plug-In . SVG Version: 6.00 Build 0)  -->
<svg version="1.1" id="Layer_1" xmlns="http://www.w3.org/2000/svg" xmlns:xlink="http://www.w3.org/1999/xlink" x="0px" y="0px"
	 viewBox="0 0 256 124" style="enable-background:new 0 0 256 124;" xml:space="preserve">
<g>
	<path d="M46.9,115.5c-24.5,0-44.4-19.9-44.4-44.4s19.9-44.4,44.4-44.4s44.4,19.9,44.4,44.4S71.4,115.5,46.9,115.5z"/>
	<path d="M46.9,27.2c24.2,0,43.9,19.7,43.9,43.9S71.1,115,46.9,115S3,95.3,3,71.1S22.7,27.2,46.9,27.2 M46.9,26.2
		C22.1,26.2,2,46.3,2,71.1S22.1,116,46.9,116s44.9-20.1,44.9-44.9S71.7,26.2,46.9,26.2L46.9,26.2z"/>
</g>
<g>
	<path d="M102.7,90.2c-21.7,0-39.3-17.6-39.3-39.3S81,11.5,102.7,11.5S142,29.1,142,50.8S124.3,90.2,102.7,90.2z"/>
	<path d="M102.7,12c21.4,0,38.8,17.4,38.8,38.8s-17.4,38.8-38.8,38.8S63.9,72.2,63.9,50.8S81.2,12,102.7,12 M102.7,11
		c-22,0-39.8,17.8-39.8,39.8s17.8,39.8,39.8,39.8s39.8-17.8,39.8-39.8S124.7,11,102.7,11L102.7,11z"/>
</g>
<g>
	<rect x="45.2" y="77.4" width="180" height="38.1"/>
	<path d="M224.8,77.9V115h-179V77.9H224.8 M225.8,76.9h-181V116h181V76.9L225.8,76.9z"/>
</g>
<g>
	<path d="M164,109.7c-21.7,0-39.3-17.6-39.3-39.3s17.6-39.3,39.3-39.3s39.3,17.6,39.3,39.3S185.7,109.7,164,109.7z"/>
	<path d="M164,31.6c21.4,0,38.8,17.4,38.8,38.8s-17.4,38.8-38.8,38.8s-38.8-17.4-38.8-38.8S142.6,31.6,164,31.6 M164,30.6
		c-22,0-39.8,17.8-39.8,39.8s17.8,39.8,39.8,39.8s39.8-17.8,39.8-39.8S186,30.6,164,30.6L164,30.6z"/>
</g>
<g>
	<path d="M223.1,115.5c-16.9,0-30.6-13.7-30.6-30.6s13.7-30.6,30.6-30.6s30.6,13.7,30.6,30.6C253.8,101.8,240,115.5,223.1,115.5z"/>
	<path d="M223.1,54.7c16.6,0,30.1,13.5,30.1,30.1S239.8,115,223.1,115S193,101.5,193,84.9S206.5,54.7,223.1,54.7 M223.1,53.7
		c-17.2,0-31.1,13.9-31.1,31.1s13.9,31.1,31.1,31.1s31.1-13.9,31.1-31.1S240.3,53.7,223.1,53.7L223.1,53.7z"/>
</g>
</svg>
