<?xml version="1.0" encoding="utf-8"?>
<!-- Generator: Adobe Illustrator 21.1.0, SVG Export Plug-In . SVG Version: 6.00 Build 0)  -->
<svg version="1.1" id="Layer_1" xmlns="http://www.w3.org/2000/svg" xmlns:xlink="http://www.w3.org/1999/xlink" x="0px" y="0px"
	 viewBox="0 0 256 165" style="enable-background:new 0 0 256 165;" xml:space="preserve">
<style type="text/css">
	.st0{stroke:#000000;stroke-miterlimit:10;}
</style>
<g>
	<path class="st0" d="M223.1,52.7c-7.8,0-14.9,2.9-20.4,7.6c-4.1-17.6-19.9-30.8-38.8-30.8c-8.8,0-16.9,2.9-23.5,7.7
		C135.2,21.4,120.3,10,102.7,10c-14.9,0-28,8.2-34.8,20.4c-6.3-3.3-13.4-5.2-21-5.2C22.1,25.2,2,45.3,2,70.1
		c0,24.1,18.9,43.7,42.7,44.8v0.1h66.9c0.8-2.3,1.7-4.8,2.9-7.4c11.8-26.2,16.9-41.1,19.4-41.1c2.4,0,16,31.8,21.8,44.8
		c0.6,1.3,1.1,2.5,1.6,3.8h68.6V115c16-1.3,28.5-14.7,28.5-31C254.3,66.7,240.3,52.7,223.1,52.7z"/>
	<path class="st0" d="M133.8,156c13.5,0,35.8-9,23.3-41h-45.6C101.8,144.6,120.8,156,133.8,156z"/>
</g>
</svg>
