<?xml version="1.0" encoding="utf-8"?>
<!-- Generator: Adobe Illustrator 21.1.0, SVG Export Plug-In . SVG Version: 6.00 Build 0)  -->
<svg version="1.1" id="Layer_1" xmlns="http://www.w3.org/2000/svg" xmlns:xlink="http://www.w3.org/1999/xlink" x="0px" y="0px"
	 viewBox="0 0 256 160.7" style="enable-background:new 0 0 256 160.7;" xml:space="preserve">
<style type="text/css">
	.st0{stroke:#000000;stroke-miterlimit:10;}
</style>
<g>
	<path class="st0" d="M223.1,51.7c-7.8,0-14.9,2.9-20.4,7.6c-4.1-17.6-19.9-30.8-38.8-30.8c-8.8,0-16.9,2.9-23.5,7.7
		C135.2,20.4,120.3,9,102.7,9c-14.9,0-28,8.2-34.8,20.4c-6.3-3.3-13.4-5.2-21-5.2C22.1,24.2,2,44.3,2,69.1
		c0,24.1,18.9,43.7,42.7,44.8v0.1H68c0.5-1.7,1.2-3.5,2-5.4c6.6-14.7,9.5-23.1,10.9-23.1s9,17.8,12.2,25.1c0.5,1.2,1,2.3,1.4,3.4
		h17.2c0.8-2.3,1.7-4.8,2.9-7.4c11.8-26.2,16.9-41.1,19.4-41.1c2.4,0,16,31.8,21.8,44.8c0.6,1.3,1.1,2.5,1.6,3.8h20.5
		c0.4-1.1,0.8-2.3,1.4-3.4c6.6-14.7,9.5-23.1,10.9-23.1s9,17.8,12.2,25.1c0.2,0.5,0.4,0.9,0.6,1.4h23.1V114
		c16-1.3,28.5-14.7,28.5-31C254.3,65.7,240.3,51.7,223.1,51.7z"/>
	<path class="st0" d="M133.8,155c13.5,0,35.8-9,23.3-41h-45.6C101.8,143.6,120.8,155,133.8,155z"/>
	<path class="st0" d="M80.9,135.7c7.4,0,19.4-4.8,13.6-21.7H68C63.5,129.6,73.8,135.7,80.9,135.7z"/>
	<path class="st0" d="M189.9,137.7c7.7,0,20.4-5.2,12.8-23.7h-25C171.6,131.1,182.5,137.7,189.9,137.7z"/>
</g>
</svg>
