<?xml version="1.0" encoding="utf-8"?>
<!-- Generator: Adobe Illustrator 21.1.0, SVG Export Plug-In . SVG Version: 6.00 Build 0)  -->
<svg version="1.1" id="Layer_1" xmlns="http://www.w3.org/2000/svg" xmlns:xlink="http://www.w3.org/1999/xlink" x="0px" y="0px"
	 viewBox="0 0 256 149.5" style="enable-background:new 0 0 256 149.5;" xml:space="preserve">
<style type="text/css">
	.st0{stroke:#000000;stroke-width:0.5;stroke-miterlimit:10;}
</style>
<g>
	<path class="st0" d="M223.1,46.2c-7.8,0-14.9,2.9-20.4,7.6C198.6,36.2,182.8,23,163.9,23c-8.8,0-16.9,2.9-23.5,7.7
		c-5.2-15.8-20.1-27.2-37.7-27.2c-14.9,0-28,8.2-34.8,20.4c-6.3-3.3-13.4-5.2-21-5.2C22.1,18.7,2,38.8,2,63.6
		c0,24.1,18.9,43.7,42.7,44.8v0.1h73.1l0.4-0.4l-7-7l5.8-5.8l8.8,8.8h9.9h4.1l-2.9-2.9l-7.1-7.1h-12.2V86h9.9v-9.9h8.1v12.4l7,7
		l3.1,3.1v-4.3v-9.9l-8.8-8.8l5.8-5.8l7,7l7-7l5.8,5.8l-8.6,8.6v10.1v3.9l2.8-2.8l7.1-7.1V76.1h8.1V86h9.9v8.1h-12.4l-7,7l-3.1,3.1
		h4.3h9.9l8.8-8.8l5.8,5.8l-7,7l0.4,0.4h44.4v-0.1c16-1.3,28.5-14.7,28.5-31C254.3,60.2,240.3,46.2,223.1,46.2z"/>
	<polygon class="st0" points="111.2,115.1 117,120.9 125.6,112.2 135.7,112.2 139.6,112.2 136.8,115 129.7,122.1 117.5,122.1 
		117.5,130.3 127.4,130.3 127.4,140.2 135.6,140.2 135.6,127.8 142.6,120.8 145.6,117.7 145.6,122 145.6,131.9 136.9,140.7 
		142.6,146.5 149.6,139.5 156.6,146.5 162.4,140.7 153.8,132.1 153.8,122 153.8,118.1 156.6,120.9 163.7,128 163.7,140.2 
		171.8,140.2 171.8,130.3 181.7,130.3 181.7,122.1 169.3,122.1 162.3,115.1 159.4,112.2 163.6,112.2 173.6,112.2 182.2,120.9 
		188,115.1 181.4,108.5 117.8,108.5 	"/>
</g>
</svg>
