<?xml version="1.0" encoding="utf-8"?>
<!-- Generator: Adobe Illustrator 21.1.0, SVG Export Plug-In . SVG Version: 6.00 Build 0)  -->
<svg version="1.1" id="Layer_1" xmlns="http://www.w3.org/2000/svg" xmlns:xlink="http://www.w3.org/1999/xlink" x="0px" y="0px"
	 viewBox="0 0 256 256" style="enable-background:new 0 0 256 256;" xml:space="preserve">
<style type="text/css">
	.st0{stroke:#000000;stroke-width:10;stroke-miterlimit:10;}
</style>
<g>
	<path class="st0" d="M127.5,38.3c12.2,0,24.1,2.4,35.2,7.1c10.8,4.6,20.5,11.1,28.8,19.4s14.9,18,19.4,28.8
		c4.7,11.2,7.1,23,7.1,35.2s-2.4,24.1-7.1,35.2c-4.6,10.8-11.1,20.5-19.4,28.8s-18,14.9-28.8,19.4c-11.2,4.7-23,7.1-35.2,7.1
		s-24.1-2.4-35.2-7.1c-10.8-4.6-20.5-11.1-28.8-19.4c-8.3-8.3-14.9-18-19.4-28.8c-4.7-11.2-7.1-23-7.1-35.2s2.4-24.1,7.1-35.2
		c4.6-10.8,11.1-20.5,19.4-28.8s18-14.9,28.8-19.4C103.4,40.7,115.3,38.3,127.5,38.3 M127.5,29.7c-54.8,0-99.3,44.4-99.3,99.3
		s44.4,99.3,99.3,99.3s99.3-44.4,99.3-99.3S182.4,29.7,127.5,29.7L127.5,29.7z"/>
</g>
<g>
	<polygon points="127.5,14.9 120.7,26.7 134.4,26.7 	"/>
</g>
<g>
	<polygon points="149.4,16.3 141.2,27.3 154.8,28.8 	"/>
</g>
<g>
	<polygon points="171.3,23.1 160.7,31.8 173.6,36.6 	"/>
</g>
<g>
	<polygon points="106.7,16.3 101.2,28.8 114.8,27.3 	"/>
</g>
<g>
	<polygon points="84.8,23.1 82.5,36.6 95.3,31.8 	"/>
</g>
<g>
	<polygon points="221.3,62.9 207.7,64.2 215.6,75.3 	"/>
</g>
<g>
	<polygon points="219.2,81.3 225.8,93.2 232.8,81.5 	"/>
</g>
<g>
	<polygon points="226.8,99.8 230.4,113 240,103.3 	"/>
</g>
<g>
	<polygon points="208,46.7 194.6,49.6 203.8,59.8 	"/>
</g>
<g>
	<polygon points="189.7,32.9 177.4,38.9 188.7,46.6 	"/>
</g>
<g>
	<polygon points="226.8,157.8 222.1,170.7 235.6,168.4 	"/>
</g>
<g>
	<polygon points="219.2,177 213.1,189.2 226.7,188.4 	"/>
</g>
<g>
	<polygon points="208.2,193.7 199.4,204.1 212.8,206.6 	"/>
</g>
<g>
	<polygon points="231.5,138.8 228.3,152.1 241.4,148.3 	"/>
</g>
<g>
	<polygon points="230.7,118.6 230.7,132.2 242.5,125.4 	"/>
</g>
<g>
	<polygon points="161.7,226.7 148.5,230.3 158.3,239.9 	"/>
</g>
<g>
	<polygon points="141.7,230.7 128.2,232.8 136.8,243.4 	"/>
</g>
<g>
	<polygon points="108.1,231.2 113.9,243.6 121.7,232.4 	"/>
</g>
<g>
	<polygon points="179.9,219.4 167.2,224.6 178,232.9 	"/>
</g>
<g>
	<polygon points="195.9,206.9 184.8,215 197.3,220.6 	"/>
</g>
<g>
	<polygon points="54.4,202.3 51.6,215.7 64.6,211.4 	"/>
</g>
<g>
	<polygon points="40.9,186.7 36.7,199.7 50,196.8 	"/>
</g>
<g>
	<polygon points="31.6,168.9 24.4,180.5 38,180.9 	"/>
</g>
<g>
	<polygon points="69.4,214 68.2,227.6 80.6,221.8 	"/>
</g>
<g>
	<polygon points="87,224.4 89,237.9 99.7,229.4 	"/>
</g>
<g>
	<polygon points="25.9,112 13.4,117.5 24.4,125.6 	"/>
</g>
<g>
	<polygon points="31,92.2 17.9,96.3 28,105.5 	"/>
</g>
<g>
	<polygon points="39.8,74 26.2,74.9 33.7,86.3 	"/>
</g>
<g>
	<polygon points="24.4,131.5 12.6,138.4 24.5,145.2 	"/>
</g>
<g>
	<polygon points="26.9,151.4 17.1,160.9 30.2,164.6 	"/>
</g>
<g>
	<polygon points="36.9,57.7 42.2,70.3 50.5,59.4 	"/>
</g>
<g>
	<polygon points="50.5,44.2 54.3,57.3 63.8,47.5 	"/>
</g>
<g>
	<polygon points="67.2,31.6 67.8,45.2 79.4,37.9 	"/>
</g>
</svg>
