<?xml version="1.0" encoding="utf-8"?>
<!-- Generator: Adobe Illustrator 21.1.0, SVG Export Plug-In . SVG Version: 6.00 Build 0)  -->
<svg version="1.1" id="Layer_1" xmlns="http://www.w3.org/2000/svg" xmlns:xlink="http://www.w3.org/1999/xlink" x="0px" y="0px"
	 viewBox="0 0 256 170" style="enable-background:new 0 0 256 170;" xml:space="preserve">
<style type="text/css">
	.st0{stroke:#000000;stroke-miterlimit:10;}
</style>
<g>
	<path class="st0" d="M223.1,49.7c-7.8,0-14.9,2.9-20.4,7.6c-4.1-17.6-19.9-30.8-38.8-30.8c-8.8,0-16.9,2.9-23.5,7.7
		C135.2,18.4,120.3,7,102.7,7c-14.9,0-28,8.2-34.8,20.4c-6.3-3.3-13.4-5.2-21-5.2C22.1,22.2,2,42.3,2,67.1
		c0,24.1,18.9,43.7,42.7,44.8v0.1h71.8l9-17.5h-34l18-36h33l-25,24h46L136.3,112h89.5v-0.1c16-1.3,28.5-14.7,28.5-31
		C254.3,63.7,240.3,49.7,223.1,49.7z"/>
	<polygon class="st0" points="91.5,160.5 136.3,112 116.5,112 	"/>
</g>
</svg>
