<?xml version="1.0" encoding="utf-8"?>
<!-- Generator: Adobe Illustrator 21.1.0, SVG Export Plug-In . SVG Version: 6.00 Build 0)  -->
<svg version="1.1" id="Layer_1" xmlns="http://www.w3.org/2000/svg" xmlns:xlink="http://www.w3.org/1999/xlink" x="0px" y="0px"
	 viewBox="0 0 512 512" style="enable-background:new 0 0 512 512;" xml:space="preserve">
<g>
	<path d="M255.5,47.5c28.2,0,55.6,5.5,81.3,16.4c24.9,10.5,47.2,25.6,66.4,44.8c19.2,19.2,34.3,41.6,44.8,66.4
		c10.9,25.8,16.4,53.1,16.4,81.3s-5.5,55.6-16.4,81.3c-10.5,24.9-25.6,47.2-44.8,66.4c-19.2,19.2-41.6,34.3-66.4,44.8
		c-25.8,10.9-53.1,16.4-81.3,16.4s-55.6-5.5-81.3-16.4c-24.9-10.5-47.2-25.6-66.4-44.8c-19.2-19.2-34.3-41.6-44.8-66.4
		c-10.9-25.8-16.4-53.1-16.4-81.3s5.5-55.6,16.4-81.3c10.5-24.9,25.6-47.2,44.8-66.4s41.6-34.3,66.4-44.8
		C199.9,53,227.3,47.5,255.5,47.5 M255.5,27.5c-126.5,0-229,102.5-229,229s102.5,229,229,229s229-102.5,229-229S382,27.5,255.5,27.5
		L255.5,27.5z"/>
</g>
<g>
	<polygon points="255.5,6.2 240.5,32.2 270.5,32.2 255.5,6.2 	"/>
</g>
<g>
	<polygon points="303.5,9.3 285.6,33.4 315.4,36.8 303.5,9.3 	"/>
</g>
<g>
	<polygon points="351.5,24.2 328.4,43.4 356.6,53.8 351.5,24.2 	"/>
</g>
<g>
	<polygon points="209.7,9.3 197.7,36.8 227.6,33.4 209.7,9.3 	"/>
</g>
<g>
	<polygon points="161.6,24.2 156.6,53.8 184.7,43.4 161.6,24.2 	"/>
</g>
<g>
	<polygon points="461.3,111.6 431.4,114.5 448.9,138.9 461.3,111.6 	"/>
</g>
<g>
	<polygon points="456.7,151.9 471.2,178.1 486.7,152.4 456.7,151.9 	"/>
</g>
<g>
	<polygon points="473.4,192.5 481.3,221.5 502.5,200.2 473.4,192.5 	"/>
</g>
<g>
	<polygon points="432.1,76.1 402.8,82.4 422.9,104.7 432.1,76.1 	"/>
</g>
<g>
	<polygon points="392,45.7 365,58.8 389.9,75.7 392,45.7 	"/>
</g>
<g>
	<polygon points="473.4,320 463.1,348.2 492.7,343.1 473.4,320 	"/>
</g>
<g>
	<polygon points="456.8,362 443.3,388.8 473.3,387.1 456.8,362 	"/>
</g>
<g>
	<polygon points="432.6,398.7 413.2,421.6 442.7,427 432.6,398.7 	"/>
</g>
<g>
	<polygon points="483.7,278.3 476.7,307.5 505.5,299 483.7,278.3 	"/>
</g>
<g>
	<polygon points="481.9,233.8 482,263.8 507.9,248.7 481.9,233.8 	"/>
</g>
<g>
	<polygon points="330.5,471.1 301.6,479.1 323,500.1 330.5,471.1 	"/>
</g>
<g>
	<polygon points="286.7,479.9 257,484.6 275.9,507.9 286.7,479.9 	"/>
</g>
<g>
	<polygon points="212.8,481.1 225.6,508.3 242.8,483.7 212.8,481.1 	"/>
</g>
<g>
	<polygon points="370.5,455.2 342.6,466.5 366.3,484.9 370.5,455.2 	"/>
</g>
<g>
	<polygon points="405.6,427.8 381.2,445.4 408.6,457.7 405.6,427.8 	"/>
</g>
<g>
	<polygon points="94.9,417.6 88.8,447 117.3,437.5 94.9,417.6 	"/>
</g>
<g>
	<polygon points="65.4,383.3 56,411.8 85.4,405.6 65.4,383.3 	"/>
</g>
<g>
	<polygon points="44.9,344.2 29,369.7 59,370.7 44.9,344.2 	"/>
</g>
<g>
	<polygon points="127.8,443.2 125.2,473.1 152.4,460.4 127.8,443.2 	"/>
</g>
<g>
	<polygon points="166.5,466.1 171,495.8 194.4,477 166.5,466.1 	"/>
</g>
<g>
	<polygon points="32.3,219.3 4.9,231.5 29.2,249.2 32.3,219.3 	"/>
</g>
<g>
	<polygon points="43.6,175.9 14.9,184.9 37,205.2 43.6,175.9 	"/>
</g>
<g>
	<polygon points="62.9,136 33,137.9 49.6,162.9 62.9,136 	"/>
</g>
<g>
	<polygon points="29,262.2 3.2,277.4 29.3,292.2 29,262.2 	"/>
</g>
<g>
	<polygon points="34.5,305.8 13,326.8 41.9,334.9 34.5,305.8 	"/>
</g>
<g>
	<polygon points="56.6,100.2 68.2,127.9 86.4,104 56.6,100.2 	"/>
</g>
<g>
	<polygon points="86.4,70.5 94.7,99.4 115.5,77.7 86.4,70.5 	"/>
</g>
<g>
	<polygon points="123.1,42.8 124.4,72.8 149.8,56.7 123.1,42.8 	"/>
</g>
</svg>
