<?xml version="1.0" encoding="utf-8"?>
<!-- Generator: Adobe Illustrator 21.1.0, SVG Export Plug-In . SVG Version: 6.00 Build 0)  -->
<svg version="1.1" id="Layer_1" xmlns="http://www.w3.org/2000/svg" xmlns:xlink="http://www.w3.org/1999/xlink" x="0px" y="0px"
	 viewBox="0 0 512 512" style="enable-background:new 0 0 512 512;" xml:space="preserve">
<style type="text/css">
	.st0{stroke:#000000;stroke-width:5;stroke-miterlimit:10;}
</style>
<g>
	<path  d="M255.5,47.5c28.2,0,55.6,5.5,81.3,16.4c24.9,10.5,47.2,25.6,66.4,44.8c19.2,19.2,34.3,41.6,44.8,66.4
		c10.9,25.8,16.4,53.1,16.4,81.3s-5.5,55.6-16.4,81.3c-10.5,24.9-25.6,47.2-44.8,66.4c-19.2,19.2-41.6,34.3-66.4,44.8
		c-25.8,10.9-53.1,16.4-81.3,16.4s-55.6-5.5-81.3-16.4c-24.9-10.5-47.2-25.6-66.4-44.8c-19.2-19.2-34.3-41.6-44.8-66.4
		c-10.9-25.8-16.4-53.1-16.4-81.3s5.5-55.6,16.4-81.3c10.5-24.9,25.6-47.2,44.8-66.4s41.6-34.3,66.4-44.8
		C199.9,53,227.3,47.5,255.5,47.5 M255.5,27.5c-126.5,0-229,102.5-229,229s102.5,229,229,229s229-102.5,229-229S382,27.5,255.5,27.5
		L255.5,27.5z"/>
</g>
<g>
	<path  d="M255.5,252c-2.5,0-4.5,2-4.5,4.5c0,2.5,2,4.5,4.5,4.5c2.5,0,4.5-2,4.5-4.5C260,254,258,252,255.5,252L255.5,252z"/>
</g>
<polygon  class="st0" points="246,254.8 313,381 258.6,250 "/>
<polygon  class="st0" points="262.2,269 81,183 269,252.8 "/>
</svg>
