<?xml version="1.0" encoding="utf-8"?>
<!-- Generator: Adobe Illustrator 21.1.0, SVG Export Plug-In . SVG Version: 6.00 Build 0)  -->
<svg version="1.1" id="Layer_1" xmlns="http://www.w3.org/2000/svg" xmlns:xlink="http://www.w3.org/1999/xlink" x="0px" y="0px"
	 viewBox="0 0 615 57" style="enable-background:new 0 0 615 57;" xml:space="preserve">
<g>
	<path d="M119.3,56h-13.2V34.9H82.2V56H69.1V1.6h13.1v21.1h23.9V1.6h13.2V56z"/>
	<path d="M184.1,28.8c0,15.5-12.6,28.2-28.1,28.2C140.4,57,128,44.3,128,28.8c0-15.4,12.5-28.2,28.1-28.2
		C171.5,0.6,184.1,13.4,184.1,28.8z M140,28.8c0,8.9,7.2,16,16.1,16c8.7,0,15.9-7.1,15.9-16c0-8.8-7.2-15.9-15.9-15.9
		C147.2,12.9,140,20,140,28.8z"/>
	<path d="M259.8,56h-13.2V28.2l-13,27.8h-14.6l-13-27.8V56h-13.1V1.6h14.6l19,39.9l18.9-39.9h14.6V56z"/>
	<path d="M313.6,1.6v12.2H285v9.4h23.8v11.4H285v9.4h28.6V56h-41.7V1.6H313.6z"/>
	<path d="M371.6,40.2c0,8.9-5.7,15.8-20.6,15.8h-26.8V1.6h23.6c15.8,0,20.7,6.2,20.7,15c0,5.6-3.9,9.5-5.1,10.4
		C368.7,29.6,371.6,34.3,371.6,40.2z M356,18.2c0-3.7-2.4-5.4-7.4-5.4h-11.3v11.4h11.3C354.3,24.2,356,22.5,356,18.2z M349.5,34.2
		h-12.2v10.6h12.2c5.3,0,7.9-1.8,7.9-5.3C357.4,35.4,354.7,34.2,349.5,34.2z"/>
	<path d="M433.4,28.8c0,15.5-12.6,28.2-28.1,28.2c-15.6,0-28.1-12.6-28.1-28.2c0-15.4,12.5-28.2,28.1-28.2
		C420.8,0.6,433.4,13.4,433.4,28.8z M389.2,28.8c0,8.9,7.2,16,16.1,16c8.7,0,15.9-7.1,15.9-16c0-8.8-7.2-15.9-15.9-15.9
		C396.4,12.9,389.2,20,389.2,28.8z"/>
	<path d="M477.8,47.5h-26.2L448,56H434l23.3-54.4H472L495.3,56h-14L477.8,47.5z M473.2,36.8l-8.5-20.3l-8.6,20.3H473.2z"/>
	<path d="M549.9,22c0,7.8-3.8,14.5-9.7,17.6L551.4,56h-16.3l-8.2-13.5h-9.6V56h-13.1V1.6h26.3C541.6,1.6,549.9,10.2,549.9,22z
		 M517.3,13.8v16.6h11.3c4.5,0,8.1-3.8,8.1-8.3c0-4.5-3.6-8.2-8-8.2H517.3z"/>
	<path d="M613.6,28.7c0,15.8-11.8,27.3-28.7,27.3h-24.1V1.7l24.1-0.1C602.8,1.5,613.6,13,613.6,28.7z M573.9,43.8h11
		c9.1,0,15.4-6,15.4-15.1c0-9.8-6.2-15-15.4-15h-11V43.8z"/>
</g>
<rect x="0.1" y="33.1" width="18.5" height="24"/>
<rect x="0.1" y="3" width="27.4" height="21.2"/>
<rect x="27.5" y="24.2" width="27.4" height="32.9"/>
</svg>
