<?xml version="1.0" encoding="utf-8"?>
<!-- Generator: Adobe Illustrator 21.1.0, SVG Export Plug-In . SVG Version: 6.00 Build 0)  -->
<svg version="1.1" id="Layer_1" xmlns="http://www.w3.org/2000/svg" xmlns:xlink="http://www.w3.org/1999/xlink" x="0px" y="0px"
	 viewBox="0 0 256 256" style="enable-background:new 0 0 256 256;" xml:space="preserve">
<style type="text/css">
	.st0{fill:none;stroke:#000000;stroke-width:11;stroke-miterlimit:10;}
	.st1{fill:none;stroke:#000000;stroke-width:6;stroke-miterlimit:10;}
</style>
<g>
	<path d="M222,19v214H18V19H222 M233,8H7v236h226V8L233,8z"/>
</g>
<polyline class="st0" points="10,13.5 246,13.5 246,229.5 222,229.5 "/>
<rect x="31.5" y="33.5" class="st1" width="84" height="84"/>
<line class="st1" x1="130" y1="33.5" x2="211" y2="33.5"/>
<line class="st1" x1="130" y1="54.5" x2="211" y2="54.5"/>
<line class="st1" x1="130" y1="76.5" x2="211" y2="76.5"/>
<line class="st1" x1="130" y1="96.5" x2="211" y2="96.5"/>
<line class="st1" x1="130" y1="116.5" x2="211" y2="116.5"/>
<line class="st1" x1="130" y1="136.5" x2="211" y2="136.5"/>
<line class="st1" x1="25.5" y1="136.5" x2="120" y2="136.5"/>
<line class="st1" x1="25.5" y1="155.5" x2="120" y2="155.5"/>
<line class="st1" x1="130" y1="155.5" x2="211" y2="155.5"/>
<line class="st1" x1="130" y1="175.5" x2="211" y2="175.5"/>
<line class="st1" x1="130" y1="195.5" x2="211" y2="195.5"/>
<line class="st1" x1="130" y1="215.5" x2="211" y2="215.5"/>
<line class="st1" x1="25.5" y1="175.5" x2="120" y2="175.5"/>
<line class="st1" x1="25.5" y1="194.5" x2="120" y2="194.5"/>
<line class="st1" x1="25.5" y1="215.5" x2="120" y2="215.5"/>
</svg>
