<?xml version="1.0" encoding="utf-8"?>
<!-- Generator: Adobe Illustrator 21.1.0, SVG Export Plug-In . SVG Version: 6.00 Build 0)  -->
<svg version="1.1" id="Layer_1" xmlns="http://www.w3.org/2000/svg" xmlns:xlink="http://www.w3.org/1999/xlink" x="0px" y="0px"
	 viewBox="0 0 512 512" style="enable-background:new 0 0 512 512;" xml:space="preserve">
<style type="text/css">
	.st0{fill:none;stroke:#000000;stroke-width:20;stroke-miterlimit:10;}
	.st1{fill:none;stroke:#000000;stroke-width:17;stroke-miterlimit:10;}
	.st2{fill:none;stroke:#000000;stroke-width:12;stroke-miterlimit:10;}
</style>
<rect x="22" y="78" class="st0" width="467" height="409"/>
<path class="st1" d="M94,122c-26.5,0-48-21.5-48-48s21.5-48,48-48s48,21.5,48,48c0,2.8,0.5,9.3,0,12"/>
<path class="st1" d="M154,122c-26.5,0-48-21.5-48-48s21.5-48,48-48s48,21.5,48,48c0,2.8,0.5,9.3,0,12"/>
<path class="st1" d="M214,122c-26.5,0-48-21.5-48-48s21.5-48,48-48s48,21.5,48,48c0,2.8,0.5,9.3,0,12"/>
<path class="st1" d="M274,122c-26.5,0-48-21.5-48-48s21.5-48,48-48s48,21.5,48,48c0,2.8,0.5,9.3,0,12"/>
<path class="st1" d="M334,122c-26.5,0-48-21.5-48-48s21.5-48,48-48s48,21.5,48,48c0,2.8,0.5,9.3,0,12"/>
<path class="st1" d="M394,122c-26.5,0-48-21.5-48-48s21.5-48,48-48s48,21.5,48,48c0,2.8,0.5,9.3,0,12"/>
<rect x="58" y="157" class="st2" width="293" height="293"/>
<rect x="382" y="157" class="st2" width="74" height="74"/>
<rect x="382" y="265" class="st2" width="74" height="74"/>
<rect x="382" y="375" class="st2" width="74" height="74"/>
</svg>
